<svg width="36" height="37" viewBox="0 0 36 37" fill="none" xmlns="http://www.w3.org/2000/svg">
<path d="M1.125 22.7599C1.42337 22.7599 1.70952 22.8863 1.9205 23.1113C2.13147 23.3364 2.25 23.6416 2.25 23.9599V29.9599C2.25 30.5964 2.48705 31.2068 2.90901 31.6569C3.33097 32.107 3.90326 32.3599 4.5 32.3599H31.5C32.0967 32.3599 32.669 32.107 33.091 31.6569C33.5129 31.2068 33.75 30.5964 33.75 29.9599V23.9599C33.75 23.6416 33.8685 23.3364 34.0795 23.1113C34.2905 22.8863 34.5766 22.7599 34.875 22.7599C35.1734 22.7599 35.4595 22.8863 35.6705 23.1113C35.8815 23.3364 36 23.6416 36 23.9599V29.9599C36 31.2329 35.5259 32.4538 34.682 33.354C33.8381 34.2542 32.6935 34.7599 31.5 34.7599H4.5C3.30653 34.7599 2.16193 34.2542 1.31802 33.354C0.474106 32.4538 0 31.2329 0 29.9599V23.9599C0 23.6416 0.118526 23.3364 0.329505 23.1113C0.540483 22.8863 0.826631 22.7599 1.125 22.7599Z" fill="white"/>
<path d="M17.3146 2.72224C17.4207 2.61643 17.5468 2.53247 17.6856 2.47519C17.8245 2.41791 17.9733 2.38842 18.1236 2.38842C18.2739 2.38842 18.4227 2.41791 18.5615 2.47519C18.7003 2.53247 18.8264 2.61643 18.9326 2.72224L25.7885 9.53987C26.003 9.75323 26.1236 10.0426 26.1236 10.3444C26.1236 10.6461 26.003 10.9355 25.7885 11.1488C25.5739 11.3622 25.2829 11.4821 24.9795 11.4821C24.6761 11.4821 24.3851 11.3622 24.1705 11.1488L19.2662 6.26968V26.2522C19.2662 26.5535 19.1458 26.8425 18.9316 27.0556C18.7173 27.2687 18.4266 27.3884 18.1236 27.3884C17.8205 27.3884 17.5299 27.2687 17.3156 27.0556C17.1013 26.8425 16.9809 26.5535 16.9809 26.2522V6.26968L12.0767 11.1488C11.9704 11.2545 11.8443 11.3383 11.7055 11.3955C11.5667 11.4526 11.4179 11.4821 11.2677 11.4821C11.1174 11.4821 10.9687 11.4526 10.8299 11.3955C10.691 11.3383 10.5649 11.2545 10.4587 11.1488C10.3524 11.0432 10.2682 10.9178 10.2107 10.7797C10.1532 10.6417 10.1236 10.4938 10.1236 10.3444C10.1236 10.1949 10.1532 10.047 10.2107 9.90897C10.2682 9.77094 10.3524 9.64552 10.4587 9.53987L17.3146 2.72224Z" fill="white"/>
</svg>
